<svg xmlns="http://www.w3.org/2000/svg" xmlns:xlink="http://www.w3.org/1999/xlink">

 
  <symbol id="icon-face" viewBox="0 0 11 21">
    <path id="Facebook" class="cls-1" d="M886.586,4999h-2.639c-2.964,0-4.879,2.03-4.879,5.17v2.38h-2.653a0.421,0.421,0,0,0-.415.43v3.45a0.421,0.421,0,0,0,.415.43h2.652v8.71a0.421,0.421,0,0,0,.415.43h3.461a0.421,0.421,0,0,0,.415-0.43v-8.71h3.1a0.421,0.421,0,0,0,.415-0.43v-3.45a0.434,0.434,0,0,0-.122-0.3,0.412,0.412,0,0,0-.293-0.13h-3.1v-2.02a1.2,1.2,0,0,1,1.45-1.46h1.777a0.428,0.428,0,0,0,.415-0.43v-3.21A0.428,0.428,0,0,0,886.586,4999Z" transform="translate(-876 -4999)"/>
  </symbol>

  
  <symbol id="icon-twitt" viewBox="0 0 22 18">
   <path id="Twitter" class="cls-1" d="M969.393,5002.33a9.191,9.191,0,0,1-2.868,1.11,4.469,4.469,0,0,0-3.293-1.44,4.532,4.532,0,0,0-4.514,4.54,4.585,4.585,0,0,0,.117,1.04,12.787,12.787,0,0,1-9.3-4.75,4.577,4.577,0,0,0,1.4,6.07,4.562,4.562,0,0,1-2.044-.57v0.05a4.539,4.539,0,0,0,3.62,4.46,4.648,4.648,0,0,1-1.189.16,4.765,4.765,0,0,1-.85-0.08,4.537,4.537,0,0,0,4.215,3.16,9.064,9.064,0,0,1-5.6,1.94,9.559,9.559,0,0,1-1.077-.06,12.821,12.821,0,0,0,19.759-10.89l-0.015-.59a9.15,9.15,0,0,0,2.256-2.35,9.029,9.029,0,0,1-2.591.72A4.6,4.6,0,0,0,969.393,5002.33Z" transform="translate(-948 -5002)"/>
  </symbol>


  <symbol id="icon-yt" viewBox="0 0 27 19">>
    <path id="YouTube" class="cls-1" d="M1057,5005.06a4.044,4.044,0,0,0-4.03-4.06h-18.93a4.052,4.052,0,0,0-4.04,4.06v10.88a4.052,4.052,0,0,0,4.04,4.06h18.93a4.044,4.044,0,0,0,4.03-4.06v-10.88Zm-16.2,10.03v-10.22l7.72,5.11Z" transform="translate(-1030 -5001)"/>
  </symbol>

</svg>